<?xml version="1.0" encoding="UTF-8"?>
<!DOCTYPE svg PUBLIC "-//W3C//DTD SVG 1.1//EN" "http://www.w3.org/Graphics/SVG/1.1/DTD/svg11.dtd">
<svg xmlns="http://www.w3.org/2000/svg" version="1.1" width="50px" height="50px" style="shape-rendering:geometricPrecision; text-rendering:geometricPrecision; image-rendering:optimizeQuality; fill-rule:evenodd; clip-rule:evenodd" xmlns:xlink="http://www.w3.org/1999/xlink">
<g><path style="opacity:0.977" fill="#000000" d="M -0.5,6.5 C 8.16667,6.5 16.8333,6.5 25.5,6.5C 25.5,7.83333 25.5,9.16667 25.5,10.5C 33.5,10.5 41.5,10.5 49.5,10.5C 49.5,21.8333 49.5,33.1667 49.5,44.5C 46.5,44.5 43.5,44.5 40.5,44.5C 40.5,43.5 40.5,42.5 40.5,41.5C 39.1667,41.5 37.8333,41.5 36.5,41.5C 36.5,42.5 36.5,43.5 36.5,44.5C 28.5,44.5 20.5,44.5 12.5,44.5C 12.5,43.5 12.5,42.5 12.5,41.5C 11.1667,41.5 9.83333,41.5 8.5,41.5C 8.5,42.5 8.5,43.5 8.5,44.5C 5.5,44.5 2.5,44.5 -0.5,44.5C -0.5,31.8333 -0.5,19.1667 -0.5,6.5 Z M 10.5,18.5 C 12.1667,18.5 13.8333,18.5 15.5,18.5C 15.2764,22.2044 15.1097,25.871 15,29.5C 20.8938,32.4038 20.2272,33.7372 13,33.5C 5.77283,33.7372 5.10616,32.4038 11,29.5C 10.8903,25.871 10.7236,22.2044 10.5,18.5 Z M 25.5,21.5 C 31.5368,21.1707 37.5368,21.5041 43.5,22.5C 40.5,22.8333 37.5,23.1667 34.5,23.5C 31.0866,23.483 28.0866,22.8164 25.5,21.5 Z M 25.5,26.5 C 31.5368,26.1707 37.5368,26.5041 43.5,27.5C 40.5,27.8333 37.5,28.1667 34.5,28.5C 31.0866,28.483 28.0866,27.8164 25.5,26.5 Z M 25.5,31.5 C 31.5368,31.1707 37.5368,31.5041 43.5,32.5C 40.5,32.8333 37.5,33.1667 34.5,33.5C 31.0866,33.483 28.0866,32.8164 25.5,31.5 Z"/></g>
</svg>
